<svg width="65" height="81" viewBox="0 0 65 81" fill="none" xmlns="http://www.w3.org/2000/svg">
<path d="M2.127 12.6255C2.09636 12.4709 2.21464 12.3268 2.37223 12.3268H61.8943C62.0519 12.3268 62.1702 12.4709 62.1395 12.6255L48.919 79.3174C48.8958 79.4345 48.7931 79.5188 48.6737 79.5188H15.5928C15.4735 79.5188 15.3708 79.4345 15.3476 79.3174L2.127 12.6255Z" fill="#EF6898" stroke="#363636" stroke-width="1.5"/>
<path d="M43.7078 78.9086L55.7319 12.9371H61.4099L48.7178 78.9086H43.7078Z" fill="#EE4380"/>
<path d="M16.8142 78.9086L3.87804 12.9371H2.85676L15.7929 78.9086H16.8142Z" fill="white"/>
<path d="M2.49623 30.3138C2.46171 30.1578 2.58049 30.0099 2.74033 30.0099H60.8454C61.0052 30.0099 61.124 30.1578 61.0895 30.3138L55.0638 57.5589C55.0384 57.6734 54.9369 57.7549 54.8197 57.7549H8.76608C8.64881 57.7549 8.5473 57.6734 8.52198 57.5589L2.49623 30.3138Z" fill="white" stroke="#363636" stroke-width="1.5"/>
<path d="M3.65135 9.46661L9.99901 0.764832H54.2677L60.6154 9.46661H3.65135Z" fill="white" stroke="#363636" stroke-width="1.5"/>
<mask id="path-6-inside-1" fill="white">
<rect x="0.133301" y="8.85632" width="64" height="4.08071" rx="1"/>
</mask>
<rect x="0.133301" y="8.85632" width="64" height="4.08071" rx="1" fill="white" stroke="#363636" stroke-width="3" mask="url(#path-6-inside-1)"/>
</svg>
