<svg width="66" height="61" viewBox="0 0 66 61" fill="none" xmlns="http://www.w3.org/2000/svg">
<path d="M30.76 59.0477L30.7706 59.0585L30.7818 59.0687C31.4178 59.6453 32.1633 59.9449 33 59.9449C33.8367 59.9449 34.5822 59.6453 35.2182 59.0687L35.2294 59.0585L35.24 59.0477L57.2372 36.5266C57.2377 36.5261 57.2383 36.5255 57.2388 36.525C58.9106 34.8406 60.3835 32.9879 61.6571 30.9674C64.2054 27.0078 65.5 23.0997 65.5 19.2503C65.5 13.6819 63.9427 9.27057 60.7706 6.08453C57.6752 2.81314 53.3756 1.20398 47.9412 1.20398C45.0732 1.20398 42.0786 2.24388 38.9661 4.2692C36.9358 5.54224 34.9474 7.14834 33 9.08368C31.0526 7.14834 29.0642 5.54224 27.0339 4.2692C23.9214 2.24388 20.9268 1.20398 18.0588 1.20398C12.6214 1.20398 8.28445 2.81476 5.11186 6.08446C2.01749 9.27142 0.5 13.6827 0.5 19.2503C0.5 23.1873 1.87627 27.2218 4.58164 31.346C6.00417 33.5195 7.39878 35.2522 8.76798 36.5319L30.76 59.0477Z" fill="#EF6898" stroke="black"/>
<path fill-rule="evenodd" clip-rule="evenodd" d="M42.5447 2.89855C44.4062 2.10217 46.2051 1.70398 47.9412 1.70398C53.2745 1.70398 57.4314 3.28024 60.4118 6.43277C63.4706 9.50233 65 13.7748 65 19.2503C65 22.9835 63.7451 26.7997 61.2353 30.6989C59.9804 32.69 58.5294 34.5151 56.8824 36.1743L34.8824 58.6983C34.3333 59.1961 33.7059 59.4449 33 59.4449C32.2941 59.4449 31.6667 59.1961 31.1177 58.6983L9.11766 36.1743C7.78432 34.9299 6.41178 33.2292 5.00001 31.0722C3.89507 29.3878 3.01905 27.7248 2.37195 26.0832C2.93885 27.4247 3.66671 28.7814 4.55553 30.1533C5.85472 32.1632 7.11783 33.7479 8.34484 34.9075L28.5906 55.8953C29.0958 56.3591 29.6733 56.591 30.3229 56.591C30.9724 56.591 31.5499 56.3591 32.0551 55.8953L52.3009 34.9075C53.8166 33.3614 55.1519 31.6607 56.3067 29.8054C58.6164 26.1722 59.7712 22.6162 59.7712 19.1376C59.7712 14.0356 58.3638 10.0545 55.5488 7.19424C52.8061 4.25672 48.9807 2.78796 44.0726 2.78796C43.5691 2.78796 43.0597 2.82482 42.5447 2.89855ZM31.9413 8.75276C30.2426 7.14306 28.5171 5.789 26.7647 4.69058C23.7059 2.69951 20.8039 1.70398 18.0588 1.70398C12.7255 1.70398 8.52942 3.28024 5.4706 6.43277C4.49743 7.43505 3.68313 8.5656 3.02773 9.8244C3.57647 8.86196 4.23009 7.98524 4.98859 7.19424C7.80351 4.25672 11.665 2.78796 16.5731 2.78796C19.0993 2.78796 21.7698 3.7156 24.5848 5.57087C26.5335 6.80773 28.4462 8.39244 30.3229 10.325C30.8594 9.7725 31.3988 9.24841 31.9413 8.75276Z" fill="#EE4380"/>
<path fill-rule="evenodd" clip-rule="evenodd" d="M5.11769 6.80954C4.51983 9.42772 4.2209 12.3638 4.2209 15.6178C4.2209 20.7178 5.57341 25.9841 8.27842 31.4167C9.71048 34.2993 11.1028 36.5721 12.4553 38.2351L16.6284 43.864L9.11765 36.1743C7.78431 34.9299 6.41177 33.2292 5 31.0722C2.33333 27.0071 1 23.0665 1 19.2503C1 13.9954 2.37256 9.84847 5.11769 6.80954Z" fill="white"/>
</svg>
