<svg width="283" height="369" viewBox="0 0 283 369" fill="none" xmlns="http://www.w3.org/2000/svg">
<path d="M124.13 144.153C119.302 143.057 114.694 141.523 110.306 139.989C107.673 139.112 101.748 135.386 94.9462 131.442H85.7304C85.7304 131.442 90.5577 134.071 92.9714 135.386C95.385 136.701 104.381 141.304 106.795 142.18C109.209 143.057 122.374 146.563 128.737 147.002C135.101 147.44 128.737 147.002 128.737 147.002L124.13 144.153Z" fill="white" stroke="#EF4380" stroke-width="0.5" stroke-miterlimit="10"/>
<path d="M130.273 368.348C201.772 368.348 259.733 356.574 259.733 342.049C259.733 327.525 201.772 315.751 130.273 315.751C58.7746 315.751 0.813477 327.525 0.813477 342.049C0.813477 356.574 58.7746 368.348 130.273 368.348Z" fill="#EF4380" stroke="#FBB3CD" stroke-miterlimit="10"/>
<path d="M120.399 65.9141C120.399 61.3118 121.716 59.1203 123.032 56.0521C125.885 49.2583 135.32 45.3135 143.658 46.8476C146.291 47.2859 147.827 47.505 147.827 47.505C148.266 46.8476 147.169 43.7794 149.802 42.4645C155.727 39.6155 157.921 43.7794 161.212 42.4645C178.547 35.2324 191.054 47.505 192.37 48.3817C193.687 49.2583 194.565 50.7924 196.1 50.3541C198.953 49.4774 201.806 49.4774 204.877 49.4774C209.705 49.6966 214.532 49.9158 219.14 51.4498C223.748 52.9839 227.917 56.2713 229.014 60.4352C229.672 62.6268 229.672 65.2566 231.647 66.5716C232.964 67.4482 234.719 67.4482 236.255 67.6673C245.251 68.7631 252.054 76.4335 254.467 84.104C256.881 91.9936 256.003 100.102 255.564 107.992C255.564 110.183 255.345 112.375 256.223 114.347C256.881 115.881 257.759 117.196 258.636 118.511C261.708 123.771 262.366 129.907 260.392 135.167C265.219 137.14 268.51 144.81 270.704 149.412C275.751 160.151 269.827 170.67 263.025 178.122C262.147 179.217 261.269 180.532 261.708 181.847C262.147 183.162 263.464 184.258 264.561 185.135C269.827 190.175 268.949 199.161 262.586 202.886C260.83 203.982 258.417 204.639 257.32 206.393C255.125 209.899 266.974 217.789 261.269 225.021C258.856 228.089 243.496 240.143 248.982 247.375C250.298 249.128 253.589 252.854 254.467 255.703C256.223 261.62 254.248 264.03 252.054 266.441C249.859 268.852 246.787 270.824 245.251 273.673C243.715 276.522 244.154 280.686 247.665 282.22C245.471 282.878 242.618 280.905 242.618 278.933C242.838 281.782 240.205 284.631 236.913 284.85C238.23 280.029 239.766 275.207 238.888 270.167C238.23 266.441 232.305 257.456 229.014 255.264" fill="#EF6898"/>
<path d="M266.974 172.643C267.852 174.615 268.949 176.807 270.924 177.683C271.801 178.122 273.118 178.341 273.996 177.902C275.093 177.464 275.97 176.807 276.629 176.149C277.287 175.272 277.945 174.396 277.726 173.3C277.287 172.204 276.19 171.766 275.093 171.985C273.996 171.985 273.118 172.862 272.46 173.519C271.801 174.396 271.143 175.272 270.485 176.149C270.046 177.026 269.607 178.122 269.827 179.217C270.046 180.313 270.485 181.19 271.363 181.847C272.24 182.505 273.337 182.943 273.996 184.039C274.654 184.915 274.873 186.011 274.873 187.326C274.654 188.422 274.215 189.518 273.996 190.613C273.776 191.709 273.557 192.805 273.337 193.901C273.118 196.092 273.118 198.284 273.776 200.475C273.118 198.284 272.899 196.092 273.118 193.901C273.337 191.709 273.996 189.518 274.435 187.326C274.435 186.23 274.215 185.134 273.557 184.258C272.899 183.381 272.021 182.943 270.924 182.285C270.046 181.628 269.388 180.532 269.168 179.436C268.949 178.341 269.388 177.245 269.827 176.149C270.265 175.053 270.924 174.177 271.801 173.519C272.46 172.643 273.557 171.985 274.654 171.766C275.751 171.766 277.068 172.204 277.506 173.3C277.945 174.396 277.068 175.711 276.409 176.368C275.751 177.245 274.654 177.902 273.557 178.341C272.46 178.779 271.363 178.56 270.265 178.122C268.73 176.807 267.632 174.615 266.974 172.643Z" fill="#EF4380"/>
<path d="M250.737 232.033C252.931 232.471 255.345 232.69 257.758 232.252C259.953 231.813 262.147 230.279 263.025 228.088C264.122 226.115 264.122 223.486 263.464 221.294C262.805 219.102 261.928 216.911 260.392 214.939C261.928 216.692 263.025 218.883 263.683 221.294C264.341 223.486 264.341 226.115 263.244 228.307C262.147 230.499 259.953 232.033 257.758 232.471C255.345 232.909 252.931 232.471 250.737 232.033Z" fill="#EF4380"/>
<path d="M242.179 226.774C240.863 228.747 239.327 230.719 239.107 232.911C239.107 233.568 239.327 234.006 239.546 234.445C239.766 234.883 240.424 235.102 240.863 235.321C241.96 235.541 243.057 235.541 244.374 235.541C245.471 235.541 246.787 235.321 247.884 235.321C248.543 235.321 248.982 235.321 249.64 235.321C250.298 235.321 250.956 235.321 251.395 235.979C252.273 237.075 251.834 238.39 251.176 239.485C250.518 240.581 249.859 241.458 249.201 242.334C247.884 244.307 246.568 246.279 245.91 248.471C245.69 249.567 245.69 250.881 246.129 251.758C246.568 252.854 247.665 253.511 248.543 254.169C250.518 255.265 252.931 255.703 255.345 256.141C257.758 256.36 260.172 256.36 262.366 255.703C260.172 256.36 257.758 256.36 255.345 256.36C252.931 256.141 250.737 255.703 248.543 254.607C247.446 253.95 246.568 253.292 245.91 252.196C245.251 251.101 245.251 249.786 245.69 248.69C246.348 246.279 247.446 244.307 248.982 242.334C249.64 241.458 250.518 240.362 250.956 239.485C251.395 238.609 251.834 237.294 251.176 236.417C250.956 235.979 250.298 235.979 249.64 235.76C248.982 235.76 248.543 235.76 247.884 235.76C246.787 235.76 245.471 235.979 244.374 235.979C243.277 235.979 241.96 235.979 240.863 235.76C240.205 235.541 239.766 235.321 239.327 234.664C238.888 234.226 238.888 233.568 238.888 232.911C239.107 230.5 240.643 228.747 242.179 226.774Z" fill="#EF4380"/>
<path d="M237.352 274.549C238.449 274.768 239.766 274.987 240.205 276.083C240.643 277.179 240.424 278.494 239.766 279.37C238.669 281.343 236.694 282.877 235.158 284.411C234.28 285.288 233.622 285.945 233.183 287.041C232.744 288.137 232.964 289.232 234.061 289.89C234.938 290.547 236.035 290.766 237.352 290.766C238.449 290.986 239.546 290.986 240.863 290.766C238.669 290.986 236.255 290.986 234.061 289.89C233.622 289.671 233.183 289.013 232.964 288.575C232.744 287.917 232.964 287.26 233.183 286.822C233.622 285.726 234.5 284.849 235.158 283.973C236.694 282.438 238.669 280.904 239.766 278.932C240.424 278.055 240.643 276.74 240.205 275.864C239.546 275.206 238.449 274.768 237.352 274.549Z" fill="#EF4380"/>
<path d="M225.064 107.992C225.284 106.02 225.064 104.048 224.625 102.075C224.187 100.103 223.748 98.3495 222.87 96.5963C221.992 94.843 221.115 93.0898 219.798 91.5557C218.482 90.2407 216.726 89.145 215.41 87.6109C213.874 86.296 212.996 84.3236 212.777 82.3512C212.557 80.3788 212.557 78.4064 212.777 76.434C213.215 72.4892 214.532 68.7635 216.287 65.257C214.532 68.7635 213.435 72.4892 212.996 76.434C212.777 78.4064 212.557 80.3788 212.996 82.3512C213.215 84.3236 214.312 86.0768 215.629 87.3917C216.946 88.7067 218.701 89.8024 220.017 91.3365C221.334 92.8706 222.212 94.6239 223.089 96.3771C224.406 100.103 225.503 104.048 225.064 107.992Z" fill="#EF4380"/>
<path d="M144.316 290.986C148.705 302.382 153.971 328.023 154.19 337.885L198.075 338.981C202.683 326.927 211.46 294.492 212.996 277.398" fill="white"/>
<path d="M144.316 290.986C148.705 302.382 153.971 328.023 154.19 337.885L198.075 338.981C202.683 326.927 211.46 294.492 212.996 277.398" stroke="#EF6898" stroke-width="0.5" stroke-miterlimit="10"/>
<path d="M185.568 100.98C183.374 99.0072 180.302 97.6923 177.669 96.5965C174.597 95.2816 170.867 93.9666 167.575 94.6241C166.259 94.8433 166.698 97.0348 168.234 96.8156C171.306 96.1582 175.036 97.9114 177.669 99.0072C179.863 99.8838 182.496 100.98 184.251 102.733C185.129 103.609 186.665 101.856 185.568 100.98Z" fill="#EF6898"/>
<path d="M256.003 95.5014C257.1 95.5014 258.417 95.7206 259.514 95.2823C260.611 95.0631 261.708 94.1865 261.489 92.8715C261.489 92.2141 261.05 91.7758 260.611 91.5566C260.172 91.3375 259.514 91.3375 259.075 91.5566C257.978 91.9949 257.32 93.0907 257.1 94.1865C256.881 95.2823 256.881 96.5972 257.1 97.693C257.539 98.7887 258.197 99.6654 259.295 100.323C261.269 101.638 263.683 102.295 266.097 102.076C263.683 102.295 261.269 101.638 259.295 100.323C258.197 99.6654 257.32 98.7887 257.1 97.4738C256.661 96.378 256.661 95.0631 257.1 93.7482C257.32 92.6524 257.978 91.3375 259.295 90.8991C259.953 90.68 260.611 90.4608 261.05 90.8991C261.708 91.1183 261.928 91.7758 261.928 92.4332C262.147 93.7482 260.831 94.8439 259.733 95.0631C258.417 95.7206 257.1 95.7206 256.003 95.5014Z" fill="#EF4380"/>
<path d="M262.147 126.182C261.928 123.771 261.269 121.361 260.172 119.169C259.075 116.978 257.539 115.005 255.784 113.252C257.759 114.786 259.295 116.758 260.392 118.95C261.489 121.361 262.367 123.771 262.147 126.182Z" fill="#EF4380"/>
<path d="M264.341 137.359C266.755 136.263 269.169 134.729 270.924 132.757C271.363 132.319 271.582 131.661 271.582 131.004C271.582 130.346 271.143 129.908 270.485 129.689C269.388 129.25 267.633 130.346 268.291 131.661C268.73 132.976 269.827 133.853 271.143 134.291C272.46 134.948 273.776 134.948 275.093 135.168C276.409 135.168 277.726 135.168 279.043 134.729C280.359 134.291 281.676 134.072 282.553 132.976C281.895 134.072 280.359 134.51 279.043 134.948C277.726 135.387 276.409 135.387 275.093 135.387C273.776 135.387 272.46 135.168 271.143 134.729C269.827 134.072 268.73 133.414 268.071 131.88C267.852 131.223 268.071 130.346 268.73 129.908C269.388 129.47 270.046 129.25 270.704 129.47C271.363 129.689 272.021 130.346 272.021 131.004C272.021 131.661 271.802 132.538 271.363 132.976C269.388 134.948 266.974 136.263 264.341 137.359Z" fill="#EF4380"/>
<path d="M243.715 136.701C245.471 139.989 246.129 143.933 245.471 147.878C244.813 151.604 242.838 155.11 240.205 157.959C237.572 160.808 234.719 163.219 232.305 166.068C230.989 167.383 229.892 168.917 229.014 170.67C228.136 172.204 227.259 174.177 227.917 176.149C227.259 174.396 227.917 172.204 228.795 170.67C229.672 168.917 230.769 167.383 232.086 166.068C234.5 163.219 237.572 160.589 239.985 157.74C242.618 154.891 244.593 151.604 245.251 147.878C246.129 144.152 245.471 140.208 243.715 136.701Z" fill="#EF4380"/>
<path d="M250.737 89.582C252.492 87.6096 253.589 84.9798 254.028 82.3499C254.467 79.72 254.248 76.871 252.931 74.6795C251.615 72.4879 249.201 70.9538 246.787 70.0772C244.374 69.2006 241.741 68.7623 238.888 68.5431C241.521 68.5431 244.154 68.9814 246.787 69.8581C249.201 70.7347 251.834 72.2688 253.151 74.6795C254.467 77.0902 254.687 79.9392 254.248 82.5691C253.809 84.9798 252.712 87.6096 250.737 89.582Z" fill="#EF4380"/>
<path d="M231.428 67.0096C235.597 65.2564 239.766 63.5031 244.154 62.4074C246.349 61.9691 248.762 61.7499 250.956 61.9691C252.054 62.1882 253.151 62.1882 254.248 62.6265C254.687 62.8457 255.345 63.284 255.345 63.9415C255.345 64.5989 254.906 65.0372 254.248 65.0372C254.906 65.0372 255.345 64.3798 255.125 63.9415C255.125 63.284 254.687 63.0648 254.028 62.8457C252.931 62.4074 251.834 62.4074 250.737 62.1882C248.543 61.9691 246.129 62.1882 243.935 62.8457C239.985 63.5031 235.816 65.2564 231.428 67.0096Z" fill="#EF4380"/>
<path d="M233.183 68.3241C234.061 71.1731 235.377 73.803 236.035 76.652C236.694 79.501 236.913 82.5692 235.597 85.1991C234.061 87.8289 231.428 89.363 229.233 91.1163C228.136 91.9929 227.039 93.0887 226.161 94.1844C225.284 95.2802 224.845 96.8143 225.064 98.3484C224.845 96.8143 225.284 95.4994 225.942 94.1844C226.82 92.8695 227.697 91.9929 229.014 90.8971C231.208 89.1439 233.841 87.6098 235.158 84.9799C236.474 82.3501 236.255 79.2819 235.597 76.652C234.938 73.803 233.841 71.1731 233.183 68.3241Z" fill="#EF4380"/>
<path d="M125.885 92.432C126.763 91.9937 127.64 91.7745 128.518 91.3362C129.396 90.8979 130.054 90.0213 130.273 89.1447C130.493 87.1723 129.396 85.419 128.737 83.4466C128.518 82.57 128.299 81.4742 128.518 80.3784C128.737 79.2827 129.396 78.6252 130.273 77.7486C131.809 76.4337 133.784 75.557 135.759 75.3379C139.709 74.8996 143.878 75.7762 147.388 74.0229C149.144 73.1463 150.46 71.6122 151.338 69.859C152.216 68.1058 152.216 65.9142 152.216 63.9418C152.435 65.9142 152.216 67.8866 151.557 69.859C150.68 71.6122 149.363 73.1463 147.608 74.2421C143.878 76.2145 139.709 75.3379 135.759 75.557C133.784 75.7762 132.029 76.6528 130.493 77.7486C129.835 78.406 129.176 79.2827 128.957 80.1593C128.737 81.0359 128.737 82.1317 128.957 83.0083C129.396 84.9807 130.712 86.7339 130.273 88.7063C130.054 89.8021 129.176 90.4596 128.299 90.8979C127.86 91.7745 126.763 91.9937 125.885 92.432Z" fill="#EF4380"/>
<path d="M215.41 102.293C217.165 104.485 218.482 107.115 219.359 109.745C220.237 112.594 220.456 115.443 220.237 118.292C220.018 121.141 219.14 123.99 217.604 126.4C216.287 129.03 214.093 131.003 212.777 133.413C212.118 134.728 211.679 136.043 211.679 137.358C211.679 138.673 212.118 140.207 212.996 141.303C213.874 142.399 214.971 143.495 215.849 144.59C216.726 145.686 217.384 147.001 218.043 148.316C220.676 153.357 221.334 159.493 219.14 164.972C221.115 159.493 220.456 153.357 217.823 148.316C217.165 147.001 216.287 145.905 215.629 144.809C214.751 143.714 213.654 142.618 212.777 141.522C211.899 140.426 211.241 138.892 211.241 137.577C211.241 136.043 211.679 134.728 212.338 133.413C213.654 130.784 215.848 128.811 217.165 126.4C218.701 123.99 219.359 121.141 219.798 118.292C220.676 112.813 218.92 106.896 215.41 102.293Z" fill="#EF4380"/>
<path d="M214.313 174.834C213.874 176.806 214.532 178.559 215.629 180.094C216.726 181.628 218.043 182.943 219.579 184.038C221.115 185.134 223.09 185.134 224.845 186.011C226.6 186.668 228.356 187.764 229.672 189.298C230.989 190.613 232.086 192.585 232.086 194.339C232.305 196.311 232.086 198.283 231.428 200.037C230.331 203.762 227.697 206.83 224.406 208.584C227.697 206.611 230.111 203.543 231.208 200.037C232.305 196.53 232.086 192.147 229.453 189.517C228.136 188.202 226.6 187.106 224.845 186.449C223.09 185.572 221.115 185.353 219.579 184.477C218.043 183.381 216.507 182.066 215.629 180.532C214.532 178.559 213.654 176.587 214.313 174.834Z" fill="#EF4380"/>
<path d="M237.133 79.5017C242.838 83.4465 247.665 90.4594 244.593 96.1575C242.838 99.4448 239.327 101.417 236.036 103.609C228.795 108.868 221.554 115.662 220.456 123.99C220.237 125.963 223.09 136.701 234.28 136.263C238.449 136.044 242.838 135.825 247.007 136.701C251.834 137.797 256.222 140.865 258.197 145.029C260.172 148.974 260.83 154.672 257.539 157.521C248.982 165.191 245.032 175.711 246.348 178.122C249.201 183.162 255.784 184.258 256.003 191.271C256.003 195.216 252.712 198.284 250.298 201.352C247.665 204.42 245.69 207.927 244.374 211.652C243.935 212.967 243.496 214.501 243.935 215.816C244.374 217.131 245.91 218.446 247.446 218.008" stroke="#EF4380" stroke-width="0.15" stroke-miterlimit="10" stroke-linecap="round"/>
<path d="M210.802 143.056C210.802 144.59 210.802 146.125 209.924 147.44C209.266 148.754 207.949 149.631 206.633 150.508C205.316 151.384 204 152.261 203.78 153.795C203.561 155.329 204 156.644 204.438 158.178C203.78 156.863 203.561 155.329 203.561 153.795C203.78 152.042 205.316 151.165 206.413 150.508C207.51 149.631 208.827 148.754 209.705 147.44C210.582 146.125 210.802 144.59 210.802 143.056Z" fill="#EF4380"/>
<path d="M167.795 288.139C175.475 300.192 177.888 317.067 174.597 330.874C174.378 331.531 175.475 331.75 175.694 331.093C179.205 317.067 176.791 299.754 168.892 287.481C168.453 287.043 167.356 287.481 167.795 288.139Z" fill="#EF6898"/>
<path d="M134.223 346.212C134.223 346.212 132.687 349.938 133.345 351.691C134.442 353.883 137.514 354.76 139.05 355.198C148.266 357.828 154.629 355.855 164.064 355.198C166.039 354.979 168.014 354.979 169.55 353.664C170.867 352.568 172.183 351.034 171.964 349.281" fill="#EF6898"/>
<path d="M134.223 346.212C134.223 346.212 132.687 349.938 133.345 351.691C134.442 353.883 137.514 354.76 139.05 355.198C148.266 357.828 154.629 355.855 164.064 355.198C166.039 354.979 168.014 354.979 169.55 353.664C170.867 352.568 172.183 351.034 171.964 349.281" stroke="white" stroke-width="0.5" stroke-miterlimit="10"/>
<path d="M158.579 331.091C159.676 331.968 160.334 333.064 161.212 334.16C162.529 335.475 164.065 336.57 165.82 337.447C166.698 337.885 167.575 338.104 168.453 337.666C169.111 337.228 169.55 336.57 169.989 336.132C170.428 335.694 171.306 335.255 171.964 335.694C172.403 336.132 172.403 336.79 172.403 337.228C172.403 341.392 172.842 345.556 172.183 349.501C171.086 348.843 169.989 348.624 168.672 348.624C167.356 348.624 166.259 349.062 164.942 349.501C161.651 350.377 158.36 350.815 154.849 350.815C149.363 351.035 143.439 351.254 138.831 347.966C137.734 347.09 134.004 345.994 134.004 345.994C134.442 343.583 136.198 339.2 138.611 336.132C140.586 333.94 150.241 324.955 158.579 331.091Z" fill="#EF6898" stroke="white" stroke-width="0.5" stroke-miterlimit="10"/>
<path d="M144.536 338.543C145.633 339.42 146.511 340.954 145.852 342.049C144.316 340.077 140.805 338.105 140.805 338.105C140.805 338.105 143.439 337.886 144.536 338.543Z" fill="#EF6898" stroke="white" stroke-width="0.5" stroke-miterlimit="10"/>
<path d="M148.485 336.132C150.021 337.885 149.582 338.981 149.582 338.981C146.949 337.228 143.658 335.255 143.658 335.255C143.658 335.255 146.291 333.94 148.485 336.132Z" fill="#EF6898" stroke="white" stroke-width="0.5" stroke-miterlimit="10"/>
<path d="M151.996 332.406C153.313 333.501 152.874 335.255 152.874 335.255C152.874 335.255 149.144 331.967 146.73 331.31C146.73 331.31 150.241 331.091 151.996 332.406Z" fill="#EF6898" stroke="white" stroke-width="0.5" stroke-miterlimit="10"/>
<path d="M163.406 346.212C163.406 346.212 161.87 349.938 162.529 351.691C163.626 353.883 166.698 354.76 168.234 355.198C177.449 357.828 183.813 355.855 193.248 355.198C195.223 354.979 197.197 354.979 198.733 353.664C200.05 352.568 201.367 351.034 201.147 349.281" fill="#EF6898"/>
<path d="M163.406 346.212C163.406 346.212 161.87 349.938 162.529 351.691C163.626 353.883 166.698 354.76 168.234 355.198C177.449 357.828 183.813 355.855 193.248 355.198C195.223 354.979 197.197 354.979 198.733 353.664C200.05 352.568 201.367 351.034 201.147 349.281" stroke="white" stroke-width="0.5" stroke-miterlimit="10"/>
<path d="M187.543 331.091C188.64 331.968 189.298 333.064 190.176 334.16C191.492 335.475 193.028 336.57 194.784 337.447C195.661 337.885 196.539 338.104 197.417 337.666C198.075 337.228 198.514 336.57 198.953 336.132C199.392 335.694 200.269 335.255 200.928 335.694C201.366 336.132 201.366 336.79 201.366 337.228C201.366 341.392 201.805 345.556 201.147 349.501C200.05 348.843 198.953 348.624 197.636 348.624C196.32 348.624 195.223 349.062 193.906 349.501C190.615 350.377 187.323 350.815 183.813 350.815C178.327 351.035 172.403 351.254 167.795 347.966C166.697 347.09 162.967 345.994 162.967 345.994C163.406 343.583 165.162 339.2 167.575 336.132C169.769 333.94 179.205 324.955 187.543 331.091Z" fill="#EF6898" stroke="white" stroke-width="0.5" stroke-miterlimit="10"/>
<path d="M173.719 338.543C174.816 339.42 175.694 340.954 175.036 342.049C173.5 340.077 169.989 338.105 169.989 338.105C169.989 338.105 172.622 337.886 173.719 338.543Z" fill="#EF6898" stroke="white" stroke-width="0.5" stroke-miterlimit="10"/>
<path d="M177.669 336.132C179.205 337.885 178.766 338.981 178.766 338.981C176.133 337.228 172.841 335.255 172.841 335.255C172.841 335.255 175.474 333.94 177.669 336.132Z" fill="#EF6898" stroke="white" stroke-width="0.5" stroke-miterlimit="10"/>
<path d="M180.96 332.406C182.277 333.501 181.838 335.255 181.838 335.255C181.838 335.255 178.108 331.967 175.694 331.31C175.913 331.31 179.205 331.091 180.96 332.406Z" fill="#EF6898" stroke="white" stroke-width="0.5" stroke-miterlimit="10"/>
<path d="M114.914 234.663C112.281 244.306 103.504 287.918 101.09 297.561L79.5865 308.957L74.3203 285.945L68.3959 259.866" fill="white"/>
<path d="M114.914 234.663C112.281 244.306 103.504 287.918 101.09 297.561L79.5865 308.957L74.3203 285.945L68.3959 259.866" stroke="#EF4380" stroke-width="0.5" stroke-miterlimit="10"/>
<path d="M117.547 315.752C117.547 315.752 119.302 319.697 118.425 321.45C117.108 323.641 114.036 324.737 112.281 325.175C102.407 328.024 95.6045 326.052 85.2916 325.175C83.3168 324.956 81.1225 324.737 79.3671 323.641C77.8312 322.546 76.7341 320.792 76.7341 319.039" fill="#EF4380"/>
<path d="M117.547 315.752C117.547 315.752 119.302 319.697 118.425 321.45C117.108 323.641 114.036 324.737 112.281 325.175C102.407 328.024 95.6045 326.052 85.2916 325.175C83.3168 324.956 81.1225 324.737 79.3671 323.641C77.8312 322.546 76.7341 320.792 76.7341 319.039" stroke="white" stroke-width="0.5" stroke-miterlimit="10"/>
<path d="M91.437 299.534C90.3399 300.41 89.4622 301.725 88.5845 302.821C87.268 304.355 85.5126 305.451 83.7572 306.328C82.8795 306.766 81.7824 306.985 80.9047 306.547C80.2464 306.108 79.8076 305.451 79.3687 304.794C78.9299 304.136 78.0522 303.698 77.3939 304.355C76.9551 304.794 76.9551 305.451 76.9551 306.108C76.9551 310.492 76.5162 315.094 77.1745 319.258C78.2716 318.6 79.5881 318.162 80.9047 318.162C82.2212 318.162 83.5378 318.819 84.8543 319.039C88.3651 320.134 91.8759 320.354 95.6061 320.573C101.531 320.792 107.894 321.011 112.721 317.724C114.038 316.847 117.768 315.532 117.768 315.532C117.329 313.121 115.354 308.3 112.721 305.013C110.746 302.602 100.433 292.959 91.437 299.534Z" fill="#EF4380" stroke="white" stroke-width="0.5" stroke-miterlimit="10"/>
<path d="M106.356 307.644C105.04 308.52 104.162 310.054 104.82 311.369C106.356 309.178 110.306 307.205 110.306 307.205C110.306 307.205 107.673 306.767 106.356 307.644Z" fill="#EF6898" stroke="white" stroke-width="0.5" stroke-miterlimit="10"/>
<path d="M102.187 305.013C100.432 306.766 101.09 308.081 101.09 308.081C103.943 306.328 107.453 303.917 107.453 303.917C107.453 303.917 104.601 302.602 102.187 305.013Z" fill="#EF6898" stroke="white" stroke-width="0.5" stroke-miterlimit="10"/>
<path d="M98.4571 300.85C96.9211 301.946 97.5794 303.918 97.5794 303.918C97.5794 303.918 101.529 300.412 103.943 299.754C104.162 299.754 100.432 299.535 98.4571 300.85Z" fill="#EF6898" stroke="white" stroke-width="0.5" stroke-miterlimit="10"/>
<path d="M28.6802 248.47C31.5327 257.455 33.2881 268.632 32.8493 276.96C31.7522 303.697 45.3564 332.845 45.3564 332.845L65.5434 323.859L79.3671 263.372" fill="white"/>
<path d="M28.6802 248.47C31.5327 257.455 33.2881 268.632 32.8493 276.96C31.7522 303.697 45.3564 332.845 45.3564 332.845L65.5434 323.859L79.3671 263.372" stroke="#EF4380" stroke-width="0.5" stroke-miterlimit="10"/>
<path d="M82.439 340.296C82.439 340.296 84.1944 344.241 83.3167 345.994C82.0002 348.186 78.9282 349.281 77.1728 349.72C67.2988 352.569 60.4966 350.596 50.1837 349.72C48.2089 349.501 46.0147 349.281 44.2593 348.186C42.7233 347.09 41.6262 345.337 41.6262 343.583" fill="#EF4380"/>
<path d="M82.439 340.296C82.439 340.296 84.1944 344.241 83.3167 345.994C82.0002 348.186 78.9282 349.281 77.1728 349.72C67.2988 352.569 60.4966 350.596 50.1837 349.72C48.2089 349.501 46.0147 349.281 44.2593 348.186C42.7233 347.09 41.6262 345.337 41.6262 343.583" stroke="white" stroke-width="0.5" stroke-miterlimit="10"/>
<path d="M56.329 324.298C55.2319 325.174 54.3542 326.489 53.4765 327.585C52.1599 329.119 50.4046 330.215 48.6492 331.092C47.7715 331.53 46.6743 331.749 45.7967 331.311C45.1384 330.873 44.6995 330.215 44.2607 329.558C43.8218 328.9 42.9442 328.462 42.2859 329.119C41.847 329.558 41.847 330.215 41.847 330.873C41.847 335.256 41.4082 339.858 42.0665 344.022C43.1636 343.364 44.4801 342.926 45.7967 342.926C47.1132 342.926 48.4297 343.584 49.7463 343.803C53.2571 344.898 56.7678 345.118 60.498 345.337C66.4225 345.556 72.7858 345.775 77.6131 342.488C78.9296 341.611 82.6598 340.296 82.6598 340.296C82.221 337.885 80.2462 333.064 77.6131 329.777C75.6383 327.366 65.3254 317.723 56.329 324.298Z" fill="#EF4380" stroke="white" stroke-width="0.5" stroke-miterlimit="10"/>
<path d="M71.2484 332.187C69.9319 333.064 69.0542 334.598 69.7124 335.913C71.2484 333.722 75.198 331.749 75.198 331.749C75.198 331.749 72.5649 331.311 71.2484 332.187Z" fill="#EF6898" stroke="white" stroke-width="0.5" stroke-miterlimit="10"/>
<path d="M67.0794 329.558C65.324 331.311 65.9823 332.626 65.9823 332.626C68.8348 330.873 72.3456 328.462 72.3456 328.462C72.3456 328.462 69.4931 327.147 67.0794 329.558Z" fill="#EF6898" stroke="white" stroke-width="0.5" stroke-miterlimit="10"/>
<path d="M63.3492 325.612C61.8133 326.708 62.4715 328.68 62.4715 328.68C62.4715 328.68 66.4211 325.174 68.8348 324.516C69.0542 324.516 65.324 324.078 63.3492 325.612Z" fill="#EF6898" stroke="white" stroke-width="0.5" stroke-miterlimit="10"/>
<path d="M123.691 175.93L125.665 200.037C119.96 224.801 122.155 264.03 126.762 271.701C131.809 280.248 126.543 288.795 126.543 288.795C135.539 295.808 190.395 284.412 199.831 279.371C208.607 274.55 223.528 279.371 223.528 279.371C230.111 263.373 233.183 226.116 209.266 206.612C201.367 200.256 192.151 188.641 193.248 173.3C193.906 164.534 189.298 156.644 184.032 154.891" fill="white"/>
<path d="M123.691 175.93L125.665 200.037C119.96 224.801 122.155 264.03 126.762 271.701C131.809 280.248 126.543 288.795 126.543 288.795C135.539 295.808 190.395 284.412 199.831 279.371C208.607 274.55 223.528 279.371 223.528 279.371C230.111 263.373 233.183 226.116 209.266 206.612C201.367 200.256 192.151 188.641 193.248 173.3C193.906 164.534 189.298 156.644 184.032 154.891" stroke="#EF6898" stroke-width="0.5" stroke-miterlimit="10"/>
<path d="M191.493 50.1358C193.906 51.4507 195.442 54.0806 195.881 56.7105C196.32 59.3403 195.662 62.1893 194.784 64.8192C193.906 67.4491 192.809 69.8598 192.37 72.4896C192.151 73.8046 192.151 75.1195 192.151 76.4344C192.151 77.0919 192.37 77.7494 192.809 78.1877C193.248 78.626 194.126 78.8451 194.565 78.4068C194.126 78.8451 193.248 78.626 192.59 78.1877C192.151 77.7494 191.932 77.0919 191.712 76.4344C191.493 75.1195 191.493 73.8046 191.712 72.2705C192.151 69.6406 193.248 67.0108 194.126 64.3809C195.004 61.751 195.662 59.1212 195.442 56.4913C195.223 54.2998 193.687 51.6699 191.493 50.1358Z" fill="#EF4380"/>
<path d="M106.356 116.101C105.698 136.263 136.856 165.191 187.104 152.48C196.539 150.07 200.05 138.016 200.05 134.729C200.05 127.278 206.413 113.032 206.413 113.032C206.413 113.032 232.964 58.0245 169.55 53.8606C169.55 53.8606 148.266 51.669 127.86 68.7631" fill="white"/>
<path d="M106.356 116.101C105.698 136.263 136.856 165.191 187.104 152.48C196.539 150.07 200.05 138.016 200.05 134.729C200.05 127.278 206.413 113.032 206.413 113.032C206.413 113.032 232.964 58.0245 169.55 53.8606C169.55 53.8606 148.266 51.669 127.86 68.7631" stroke="#EF6898" stroke-width="0.5" stroke-miterlimit="10"/>
<path d="M136.417 75.5574C139.928 76.2148 143.658 75.9957 146.95 74.6808C150.241 73.3658 152.655 69.8593 152.655 66.3529C152.655 65.2571 152.435 64.3805 152.655 63.2847C153.313 59.9974 157.482 59.1207 160.773 59.3399C164.942 59.7782 169.111 61.0931 172.403 63.5038C169.55 66.1337 170.208 70.9551 172.622 74.0233C175.036 77.0915 178.985 78.6256 182.496 80.1596C183.154 80.3788 183.813 80.8171 184.252 81.2554C184.471 81.6937 184.69 82.3512 184.69 83.0087C184.91 87.6109 185.349 92.4323 187.762 96.3771C190.176 100.322 194.564 103.39 199.172 103.171C198.514 105.582 200.489 107.773 202.244 109.088C203.341 109.746 205.755 111.718 205.755 111.718C217.604 86.296 197.417 60.6548 179.205 55.8334C131.809 43.3416 114.914 74.6808 113.378 85.4194C113.378 85.4194 127.64 73.8041 136.417 75.5574Z" fill="#EF6898"/>
<path d="M170.647 55.177C169.989 54.9578 169.331 54.7387 168.672 54.5195C167.136 54.0812 165.6 53.6429 164.064 53.6429C162.309 53.6429 160.554 54.3004 159.018 55.3961C157.701 56.4919 154.41 58.026 153.532 59.5601C152.435 61.7516 152.435 64.6006 152.435 65.9156C152.435 65.9156 152.216 63.9432 152.874 62.6282C153.093 62.1899 153.532 61.5325 154.849 60.6559C155.507 60.2175 156.165 59.9984 157.043 59.9984C158.14 59.5601 159.018 59.5601 159.237 59.5601C160.554 59.5601 162.528 59.7792 163.845 59.9984C165.82 60.4367 167.136 60.875 168.453 61.3133C169.111 61.5325 171.305 62.6282 172.622 63.5049C172.622 63.5049 173.28 62.8474 173.719 62.1899C174.597 60.875 174.816 58.026 173.719 56.7111C173.061 56.0536 171.744 55.3961 170.647 55.177Z" fill="#EF4380"/>
<path d="M191.054 72.7078C196.32 73.5844 201.147 76.4335 204.219 80.5974C205.755 82.789 206.852 85.1997 207.291 87.8295C207.73 90.4594 207.51 93.0893 206.633 95.5C208.169 90.4594 207.072 84.7614 203.78 80.8166C201.147 76.6526 196.32 73.8036 191.054 72.7078Z" fill="#EF4380"/>
<path d="M159.018 116.539C159.676 113.471 162.748 111.28 165.82 111.499C167.356 111.718 171.086 112.156 174.158 114.567C179.644 118.512 180.521 122.676 180.521 122.676C180.521 122.676 184.69 122.238 185.349 123.552C183.154 123.552 180.96 125.306 180.96 125.306C180.96 125.306 179.863 128.812 179.644 130.127C179.644 130.127 179.644 125.963 175.694 122.895C166.698 115.444 159.018 116.539 159.018 116.539Z" fill="#EF6898"/>
<path d="M153.313 125.744C150.68 130.784 144.317 133.633 138.831 131.223C133.345 128.812 130.712 122.457 132.468 116.758C132.907 115.444 130.712 114.786 130.273 116.101C128.299 122.676 131.371 130.346 137.953 133.195C144.317 136.044 151.996 132.757 155.068 126.62C155.946 125.525 153.971 124.429 153.313 125.744Z" fill="#EF6898"/>
<path d="M123.691 94.6246C126.543 93.9672 129.615 94.8438 131.809 96.8162C134.004 98.5694 135.32 100.98 136.417 103.391C136.856 103.391 137.295 102.953 137.514 102.295C138.392 97.9119 136.198 93.5288 131.151 91.5564C130.273 91.3373 129.176 91.1181 128.518 90.4607C126.763 88.9266 127.201 85.8584 125.007 84.7626C124.788 85.6393 123.691 94.6246 123.691 94.6246Z" fill="#EF6898"/>
<path d="M139.708 76.2152C142.122 77.0918 143.439 80.8174 142.122 83.009C141.903 83.2281 141.683 83.6665 141.464 83.6665C141.025 83.8856 140.586 83.4473 140.147 83.009C138.611 81.6941 137.295 79.9408 135.759 78.6259C134.223 77.311 131.59 75.7769 129.615 75.996C129.615 76.2152 133.565 74.2428 139.708 76.2152Z" fill="#EF6898"/>
<path d="M166.917 95.2808C166.698 95.2808 166.259 95.7191 166.259 96.1574C166.259 96.8149 166.917 97.2532 167.575 97.2532C174.377 99.2256 180.741 102.732 186.226 107.334C186.226 107.554 178.327 89.5828 166.917 95.2808Z" fill="#EF6898"/>
<path d="M112.5 176.149C114.914 188.422 121.935 223.268 119.083 232.472C116.669 240.143 110.086 239.485 104.381 241.677C97.5793 244.307 90.7772 248.251 84.6334 252.415C81.1226 254.607 77.8312 257.237 74.101 258.552C70.3708 260.086 66.2018 260.524 62.2522 260.524C49.3062 260.743 35.9213 253.511 24.2919 245.402C24.2919 245.402 10.6876 190.394 33.7271 147.002C37.4573 139.769 43.6012 133.852 50.1839 128.812C54.7918 125.524 59.6191 124.429 65.5435 124.867C77.173 125.744 101.529 140.427 107.673 142.399C131.151 149.851 161.432 150.07 182.496 137.14C182.496 137.14 185.568 127.716 186.446 124.648C187.762 119.826 192.59 119.388 195.003 121.799C195.881 122.675 196.101 124.867 196.101 124.867C196.101 124.867 204.877 117.854 208.388 126.182C210.144 130.346 209.046 136.92 205.755 139.331C201.586 142.399 195.223 141.304 191.493 144.81C189.298 147.002 188.201 151.385 186.007 153.576C159.457 180.094 109.648 176.588 97.7988 174.834C91.4355 173.958 85.9499 171.328 85.9499 171.328" fill="white"/>
<path d="M112.5 176.149C114.914 188.422 121.935 223.268 119.083 232.472C116.669 240.143 110.086 239.485 104.381 241.677C97.5793 244.307 90.7772 248.251 84.6334 252.415C81.1226 254.607 77.8312 257.237 74.101 258.552C70.3708 260.086 66.2018 260.524 62.2522 260.524C49.3062 260.743 35.9213 253.511 24.2919 245.402C24.2919 245.402 10.6876 190.394 33.7271 147.002C37.4573 139.769 43.6012 133.852 50.1839 128.812C54.7918 125.524 59.6191 124.429 65.5435 124.867C77.173 125.744 101.529 140.427 107.673 142.399C131.151 149.851 161.432 150.07 182.496 137.14C182.496 137.14 185.568 127.716 186.446 124.648C187.762 119.826 192.59 119.388 195.003 121.799C195.881 122.675 196.101 124.867 196.101 124.867C196.101 124.867 204.877 117.854 208.388 126.182C210.144 130.346 209.047 136.92 205.755 139.331C201.586 142.399 195.223 141.304 191.493 144.81C189.298 147.002 188.201 151.385 186.007 153.576C159.457 180.094 109.648 176.588 97.7988 174.834C91.4355 173.958 85.9499 171.328 85.9499 171.328" stroke="#EF4380" stroke-width="0.5" stroke-miterlimit="10"/>
<path d="M133.565 200.038C133.565 200.038 106.795 205.736 80.6836 195.655C66.4211 190.176 48.4283 175.931 48.4283 175.931C48.4283 175.931 31.0939 173.739 30.2162 167.603C28.4608 157.084 38.3348 155.549 38.3348 155.549C38.3348 155.549 37.0183 152.262 39.6514 150.947C46.6729 148.098 54.5722 167.384 54.5722 167.384C54.5722 167.384 74.5397 177.246 89.2411 179.437C94.5073 180.314 112.719 181.629 123.91 176.369H125.446" fill="white"/>
<path d="M115.133 202.229C105.479 202.229 92.752 200.914 80.2449 196.093C66.6406 190.833 49.5256 177.684 47.9896 176.369C46.2342 176.149 30.4357 173.739 29.3386 167.602C28.6803 164.315 29.3386 161.466 30.8746 159.055C32.8494 156.206 35.9213 155.33 37.4573 154.891C37.2378 154.234 37.0184 153.138 37.4573 152.042C37.8961 151.166 38.335 150.727 39.2126 150.289C40.3098 149.851 41.6263 149.851 42.9428 150.289C48.6479 152.7 53.914 164.973 54.7917 166.726C56.7665 167.822 75.4175 176.588 89.0218 178.56C92.9714 179.218 110.525 180.971 122.374 176.149L125.007 175.93L124.788 176.149C113.378 182.505 93.1908 180.313 88.8024 179.656C74.3204 177.464 54.1334 167.602 54.1334 167.602H53.914V167.383C53.914 167.164 48.4284 153.796 42.7234 151.385C41.6263 150.947 40.7486 150.947 39.8709 151.385C39.2126 151.604 38.7738 152.042 38.5544 152.481C38.1155 153.576 38.7738 155.111 38.7738 155.111L38.9932 155.768H38.335C38.335 155.768 34.1659 156.425 31.9717 159.494C30.4357 161.466 29.9969 164.096 30.6551 167.164C31.5328 171.986 43.8205 174.615 48.4284 175.054H48.6479H48.8673C49.0867 175.273 66.86 189.08 81.1226 194.558C105.259 203.982 130.054 199.599 133.345 199.161L133.126 200.257C131.151 201.133 124.568 202.229 115.133 202.229Z" fill="#EF6898"/>
<path d="M48.2089 175.931C50.6226 174.177 53.6945 170.233 54.3528 167.384L48.2089 175.931Z" fill="white"/>
<path d="M48.6477 176.369C51.5002 174.177 54.1333 170.89 55.011 167.602C55.2304 166.945 54.1333 166.726 53.9139 167.383C53.0362 170.451 50.6225 173.52 47.9895 175.492C47.5506 175.93 47.9895 176.807 48.6477 176.369Z" fill="#EF6898"/>
<path d="M182.716 137.577C182.716 138.673 186.665 143.275 191.712 144.371L182.716 137.577Z" fill="white"/>
<path d="M182.057 137.578C182.277 139.112 183.593 140.427 184.691 141.303C186.665 143.056 188.86 144.371 191.493 145.029C192.151 145.248 192.37 144.152 191.712 143.933C189.518 143.495 187.543 142.399 185.788 140.865C184.91 140.207 183.374 138.892 183.155 137.578C183.155 136.92 182.057 136.92 182.057 137.578Z" fill="#EF4380"/>
<path d="M165.82 132.1C167.136 132.1 167.136 129.908 165.82 129.908C164.284 129.908 164.284 132.1 165.82 132.1Z" fill="#EF6898"/>
<path d="M173.061 136.921C174.378 136.921 174.378 134.729 173.061 134.729C171.525 134.729 171.525 136.921 173.061 136.921Z" fill="#EF6898"/>
<path d="M164.723 138.893C166.039 138.893 166.039 136.701 164.723 136.701C163.187 136.701 163.187 138.893 164.723 138.893Z" fill="#EF6898"/>
<path d="M123.471 109.963C124.788 109.963 124.788 107.772 123.471 107.772C122.155 107.772 122.155 109.963 123.471 109.963Z" fill="#EF6898"/>
<path d="M124.349 116.977C125.665 116.977 125.665 114.785 124.349 114.785C122.813 114.785 122.813 116.977 124.349 116.977Z" fill="#EF6898"/>
<path d="M124.788 90.2403C123.471 92.8701 122.813 95.9383 122.374 98.7873C121.935 103.828 123.91 109.964 122.374 115.005C121.277 118.511 118.644 123.114 115.791 125.305C109.209 130.784 102.626 131.441 94.9461 131.441C85.5108 131.661 76.2951 130.565 67.0793 128.592C58.7412 126.62 50.4031 123.552 43.3815 118.292C36.36 113.032 31.0938 105.581 29.5578 97.0341C29.5578 97.0341 27.3636 96.8149 23.8528 94.8425C22.3169 93.9659 20.7809 92.4318 19.0255 90.6786C14.8565 86.0763 12.8816 70.5163 26.4859 71.3929C26.4859 71.3929 53.6944 -1.80492 119.741 44.656" fill="white"/>
<path d="M26.7052 70.7351L27.1441 71.8309H26.7052C22.3167 71.6118 19.2448 73.1458 17.7088 76.214C15.5146 81.0354 17.4894 87.6101 19.6837 90.24C21.439 92.2124 22.975 93.5273 24.2916 94.4039C27.5829 96.3763 29.7771 96.5955 29.7771 96.5955H30.216V97.0338C31.5325 104.923 36.3598 112.594 43.8203 118.073C49.9641 122.675 57.6439 125.962 67.2986 128.373C76.2949 130.565 85.7302 131.441 94.9459 131.222C102.626 131.003 109.208 130.565 115.572 125.086C118.424 122.675 120.838 118.073 121.935 115.005C122.813 112.155 122.593 108.868 122.154 105.581C121.935 103.389 121.716 101.198 121.935 99.0062C122.154 95.938 123.032 93.089 124.349 90.24L124.568 89.8016L125.226 91.3357C124.129 93.9656 123.471 96.5955 123.252 99.2253C123.032 101.198 123.252 103.389 123.471 105.581C123.91 108.868 124.129 112.375 123.252 115.443C122.154 118.73 119.521 123.552 116.669 126.181C110.086 131.879 103.284 132.318 95.3848 132.537C94.5071 132.537 93.8488 132.537 92.9711 132.537C84.4136 132.537 75.8561 131.441 67.2986 129.469C57.4245 127.058 49.5253 123.771 43.3814 119.168C35.921 113.47 30.8743 105.8 29.5577 97.9104C28.68 97.6912 26.9246 97.2529 24.0721 95.7188C22.7556 94.8422 21.2196 93.5273 19.2448 91.3357C16.3923 88.2676 14.8563 80.8163 17.0506 75.9949C18.1477 73.5842 20.7808 70.7351 26.7052 70.9543V70.7351Z" fill="#EF4380"/>
<path d="M28.2414 91.5554C28.4608 90.0213 27.8025 88.268 26.7054 87.1723C25.6083 86.0765 24.2917 84.9807 23.414 83.8849C22.7558 83.0083 22.3169 81.0359 23.414 79.9401C23.8529 79.5018 24.5112 79.2827 25.1694 79.2827C26.486 79.5018 27.5831 80.5976 27.8025 81.9125" stroke="#EF4380" stroke-width="0.5" stroke-miterlimit="10" stroke-linecap="round"/>
<path d="M106.356 88.9253C107.234 86.7337 109.647 85.1996 112.061 85.4188C117.766 85.6379 121.496 89.1444 122.155 89.8019C123.252 91.1168 122.374 94.185 122.374 94.185C121.277 91.7743 114.914 91.336 113.158 91.5551C108.331 91.9934 105.917 94.185 105.917 94.185C105.917 94.185 105.698 90.2402 106.356 88.9253Z" fill="#EF4380"/>
<path d="M108.55 45.7523C114.255 52.327 114.694 62.8464 109.209 69.6402C106.356 61.0932 101.748 53.2036 95.8238 46.4098C92.9713 43.1224 89.6799 40.0543 85.5109 38.7393C80.4641 37.2052 74.7591 38.7393 69.7124 40.4926C51.7197 47.2864 35.7017 62.8464 31.9715 81.9129C24.0723 70.0785 21.0004 55.176 23.414 41.3692C25.8277 27.5624 33.7269 14.4131 44.9175 5.86605C46.4535 6.74267 44.6981 10.6875 43.1621 12.6599C46.6729 14.8514 51.0614 11.5641 54.5722 9.37254C66.2016 3.45534 80.2447 10.2492 92.5324 6.96183C97.5792 5.6469 102.187 2.57872 107.234 1.26379C112.281 -0.0511384 118.863 1.26379 120.838 6.08521C115.352 5.6469 109.647 6.74267 104.601 8.93423C114.036 9.37254 119.96 18.1387 128.737 21.6452C148.266 29.0965 148.705 52.7653 148.924 57.8058C149.583 65.038 147.608 72.2701 145.852 79.5022C142.78 74.6808 139.928 66.3529 135.101 63.723C137.953 66.572 137.295 74.0233 136.198 78.1873C133.565 69.4211 128.518 61.5315 125.885 59.5591C128.957 71.8318 129.615 84.7619 127.421 97.0346C123.91 90.8983 122.155 83.6662 119.741 77.0915C117.986 72.4892 115.352 67.6678 112.061 64.1613" fill="#EF4380"/>
<path d="M108.333 45.9708C111.404 49.6965 112.94 54.0796 112.721 58.901C112.502 61.0925 112.063 63.2841 111.185 65.2565C110.088 67.8864 110.088 68.3247 108.771 65.914C105.699 59.7776 103.066 54.0796 98.8973 48.6007C95.1671 43.7793 90.5592 38.7387 84.1959 37.6429C78.2715 36.5472 72.1276 38.7387 66.8615 41.1494C54.7932 46.4091 44.0414 55.3945 37.4587 66.7906C35.9228 69.4204 34.6062 72.0503 33.7285 74.8993C33.2897 75.9951 33.0703 78.625 32.1926 79.5016C31.0954 80.8165 30.2178 77.7483 29.3401 76.2143C25.171 68.1055 23.1962 58.901 23.4156 49.6965C23.635 40.2728 26.2681 30.8491 31.0954 22.7404C33.2897 18.7956 36.1422 15.2891 39.2141 12.0018C39.8724 11.3443 43.3832 7.18035 44.2609 7.39951C46.2357 7.83782 43.6026 11.5635 43.1637 12.4401C42.9443 12.6592 43.1637 13.0975 43.3832 13.3167C49.527 15.9466 55.4515 8.93359 61.5953 8.05697C70.1528 6.52288 78.9298 9.15275 87.4873 8.49528C95.6059 7.83782 102.189 1.92062 110.088 1.70147C112.282 1.70147 114.915 1.92062 116.89 3.0164C121.717 5.64626 117.987 5.64626 115.354 5.86542C111.624 6.30373 108.113 7.18035 104.602 8.49528C103.944 8.71444 104.163 9.59106 104.822 9.59106C111.185 10.2485 115.793 13.9742 120.62 17.4806C124.789 20.5488 129.617 21.8638 133.786 24.7128C141.465 29.5342 145.415 37.8621 147.39 46.6283C148.926 54.0796 149.365 62.1883 147.829 69.6396C147.609 70.2971 146.512 78.1867 145.854 78.1867C145.415 78.1867 142.782 72.4886 142.563 71.8312C140.807 68.5438 138.832 65.2565 135.541 63.2841C134.883 62.8458 134.444 63.7224 134.883 64.1607C137.077 67.0097 137.296 72.2695 136.419 75.776C135.98 77.5292 136.419 76.6526 135.98 75.3376C135.541 74.0227 135.102 72.9269 134.444 71.612C132.469 67.2289 130.055 62.4075 126.325 59.1201C125.886 58.6818 125.228 59.1201 125.448 59.5585C126.984 65.914 128.081 72.4886 128.3 79.0633C128.3 82.1315 128.3 84.9805 128.081 88.0486C128.081 89.3636 127.861 90.6785 127.642 91.9934C127.422 94.185 127.861 95.7191 126.325 93.0892C123.034 88.2678 122.156 81.2548 119.962 75.9951C118.207 71.3928 115.793 67.2289 112.502 63.5033C112.063 63.0649 111.185 63.7224 111.624 64.3799C119.743 73.8036 121.279 86.5146 126.984 97.2532C127.203 97.6915 127.861 97.6915 128.081 97.034C129.617 87.6103 129.836 78.4058 128.3 68.9821C127.861 66.5714 126.764 63.5033 126.764 61.0925C125.667 59.9968 125.667 59.9968 126.545 60.8734C127.422 61.75 128.081 62.8458 128.739 63.7224C131.811 68.1055 133.786 73.1461 135.541 78.1867C135.76 78.625 136.419 78.8441 136.638 78.1867C137.735 73.8036 138.174 68.763 136.199 64.599C135.322 62.6266 137.077 66.1331 137.296 66.3523C138.394 67.8864 139.491 69.2013 140.368 70.9545C142.124 73.8036 143.44 76.8717 144.976 79.7207C145.196 80.1591 145.854 80.159 146.073 79.5016C150.023 64.1607 151.34 46.19 142.343 32.3832C137.077 24.0553 128.739 22.3021 121.279 16.8232C117.329 13.9742 113.599 10.6868 108.771 9.15275C106.577 8.49528 104.163 8.71444 107.674 8.05697C112.502 7.39951 116.451 6.52288 120.84 6.74204C121.279 6.74204 121.498 6.30373 121.279 5.86542C118.426 0.824848 112.502 -0.490084 107.016 0.824847C102.408 1.92062 98.4585 4.55049 94.07 5.86542C89.0233 7.39951 83.9765 7.39951 78.7103 6.96119C70.5917 6.30373 62.473 4.9888 54.7932 8.93359C52.5989 10.0294 50.1853 12.2209 47.7716 12.6592C42.9443 13.0975 45.358 11.5635 46.0162 9.59106C46.4551 8.05697 46.8939 6.74204 45.7968 5.42711C45.5774 5.20795 45.1385 5.20795 44.9191 5.42711C21.4408 23.8361 15.7358 56.9286 31.7537 82.1315C31.9731 82.5698 32.6314 82.5698 32.8508 81.9123C36.581 64.8182 49.0882 51.0114 64.4478 43.5601C74.1024 38.7387 84.8542 35.8897 93.6311 44.4367C100.653 51.4497 105.699 60.4351 108.991 69.8588C109.21 70.2971 109.649 70.2971 110.088 70.0779C115.573 62.6266 115.135 52.7646 109.21 45.5325C108.552 44.6559 107.894 45.5325 108.333 45.9708Z" fill="#FBB3CD"/>
<path d="M114.694 75.7758C116.45 74.2417 119.083 74.2417 120.619 75.7758C122.155 77.3099 124.568 74.8992 123.032 73.3651C120.18 70.5161 115.353 70.5161 112.5 73.3651C110.745 74.8992 113.158 77.0907 114.694 75.7758Z" fill="#EF4380"/>
<path d="M81.7808 88.9252C82.8779 85.857 82.8779 81.9122 80.9031 79.5015C79.1477 77.3099 76.0758 75.1184 73.6621 74.2418C69.2736 72.4885 64.8852 72.0502 60.0579 72.0502C55.2305 72.0502 50.4032 74.6801 48.6478 78.844C52.5975 76.8716 59.3996 77.5291 62.4715 78.1865C75.8564 80.3781 81.7808 88.9252 81.7808 88.9252Z" fill="#EF4380"/>
<path d="M74.1009 100.102C71.9067 106.896 74.7592 114.785 81.3419 117.853C87.9246 120.922 95.8238 117.634 99.554 111.498C100.212 110.183 98.4569 109.087 97.5792 110.402C94.5073 115.662 87.9246 118.511 82.2196 115.881C76.5146 113.251 74.3203 106.676 76.0757 100.759C76.734 99.4444 74.5398 98.7869 74.1009 100.102Z" fill="#EF4380"/>
<path d="M88.3634 70.5155C83.5361 59.9961 60.9355 54.9555 53.0363 61.0918" stroke="#EF4380" stroke-width="1.5" stroke-miterlimit="10" stroke-linecap="round"/>
<path d="M31.9716 65.4755C28.8997 68.982 29.3386 75.7758 31.9716 79.2823C32.1911 79.5015 32.4105 79.2823 32.1911 79.0632C29.7774 75.5567 29.3386 68.982 32.1911 65.6947C32.1911 65.4755 31.9716 65.2564 31.9716 65.4755Z" fill="#EF6898"/>
<path d="M107.014 38.7397C119.083 42.9037 130.054 51.6699 134.881 63.7234C135.101 64.3809 136.198 64.1617 135.978 63.5042C130.932 51.0124 119.96 42.027 107.234 37.8631C106.576 37.6439 106.356 38.5206 107.014 38.7397Z" fill="#EF6898"/>
<path d="M145.633 49.697C147.169 49.2587 148.705 49.0396 150.46 49.0396C151.996 49.0396 153.752 49.0395 155.288 49.4779C156.165 49.697 156.824 50.1353 157.482 50.7928C157.701 51.0119 157.921 51.4503 158.14 51.8886C158.36 52.3269 158.14 52.7652 158.14 53.2035C157.921 54.0801 157.263 54.7376 156.604 55.1759C155.727 55.6142 154.849 55.3951 154.191 54.9567C153.752 54.5184 153.532 53.6418 153.971 52.9843C154.41 52.546 155.068 52.1077 155.727 51.8886C157.043 51.6694 158.36 51.6694 159.457 52.546C159.896 52.9843 160.334 53.6418 160.334 54.2993C160.334 54.9567 159.676 55.3951 159.457 56.0525C158.36 56.9291 158.36 58.2441 158.579 59.559C158.579 58.9015 158.36 58.2441 158.579 57.5866C158.579 56.9291 159.018 56.2717 159.457 55.8334C159.896 55.3951 160.334 54.7376 160.334 54.2993C160.334 53.6418 160.115 53.2035 159.457 52.7652C158.579 51.8886 157.043 51.8886 155.946 52.1077C155.288 52.3269 154.849 52.546 154.41 52.9843C153.971 53.4227 154.191 54.0801 154.629 54.5184C155.288 54.9567 156.165 54.9567 156.824 54.7376C157.482 54.5184 157.921 53.861 158.36 52.9843C158.579 52.546 158.579 52.3269 158.579 51.8886C158.36 51.4503 158.14 51.2311 157.921 51.0119C157.482 50.3545 156.604 50.1353 155.946 49.9162C154.41 49.4779 152.874 49.2587 151.119 49.4779C148.705 49.2587 147.169 49.4779 145.633 49.697Z" fill="#EF4380"/>
<path d="M172.622 63.5038C170.867 65.0379 170.428 67.6678 170.867 69.8594C171.306 72.0509 172.622 74.0233 174.377 75.5574C176.133 77.0915 178.108 77.9681 180.302 79.0639C181.399 79.5022 182.496 79.9405 183.374 80.598C183.813 80.8171 184.471 81.2554 184.69 81.9129C184.91 82.5704 184.91 83.0087 184.91 83.6661C184.91 85.8577 185.129 88.2684 185.568 90.4599C186.007 92.6515 186.885 94.8431 187.982 96.8154C189.079 98.7878 190.834 100.541 192.59 101.637C194.564 102.952 196.759 103.609 198.953 103.39H199.172V103.609C199.172 104.705 199.172 105.801 199.611 106.677C200.05 107.554 200.928 108.212 201.586 108.869L204.219 110.622C204.658 110.841 205.097 111.28 205.536 111.718C205.755 111.937 205.974 111.937 205.974 112.375C205.974 112.595 205.755 112.814 205.755 113.252L203.561 118.731C202.902 120.703 202.244 122.676 201.586 124.648C200.928 126.621 200.489 128.812 200.708 130.785C200.928 131.88 201.147 132.757 201.805 133.634C202.464 134.51 203.341 134.948 204.219 135.606C205.974 136.921 206.852 139.112 206.413 141.304C205.974 143.276 204.658 145.249 202.902 146.564C201.147 147.879 199.392 148.755 197.856 150.289C196.32 151.604 195.003 153.358 194.564 155.549C194.126 157.521 194.784 159.713 196.1 161.466C196.759 162.343 197.636 163 198.295 163.658C198.733 164.096 199.172 164.315 199.392 164.754C199.611 165.192 199.831 165.63 200.05 166.288C200.708 168.26 200.489 170.452 199.831 172.424C199.172 174.396 198.295 176.369 197.417 178.341C196.978 179.218 196.759 180.314 196.539 181.409C196.539 181.848 196.32 182.505 196.32 182.943C196.32 183.382 196.539 184.039 196.539 184.478C197.417 186.45 199.172 187.984 201.147 188.422C199.172 187.984 197.417 186.45 196.539 184.478C196.32 184.039 196.32 183.382 196.32 182.943C196.32 182.505 196.539 181.848 196.539 181.409C196.759 180.314 196.978 179.437 197.417 178.341C198.075 176.369 199.172 174.396 199.831 172.424C200.489 170.452 200.708 168.26 200.05 166.288C199.831 165.849 199.611 165.411 199.392 164.754C199.172 164.315 198.733 164.096 198.295 163.658C197.417 163 196.759 162.343 196.1 161.466C194.784 159.932 194.126 157.521 194.564 155.549C194.784 153.358 196.32 151.604 197.856 150.289C199.392 148.974 201.367 147.879 202.902 146.564C204.658 145.249 205.755 143.496 206.194 141.523C206.633 139.551 205.755 137.359 204 136.044C203.122 135.387 202.244 134.948 201.586 134.072C200.928 133.195 200.489 132.099 200.489 131.223C200.269 129.031 200.708 127.059 201.367 124.867C202.025 122.895 202.683 120.923 203.341 118.95L205.755 113.033C205.755 112.814 205.974 112.595 205.974 112.375C205.974 112.375 205.755 111.937 205.536 111.937C205.097 111.499 204.658 111.28 204.438 110.841L201.805 109.088C200.928 108.431 200.05 107.773 199.611 106.677C199.172 105.582 199.172 104.486 199.172 103.609V103.828C196.978 104.267 194.564 103.39 192.59 102.075C190.615 100.76 188.859 99.2262 187.762 97.0346C186.665 95.0622 185.787 92.8707 185.349 90.6791C184.91 88.4875 184.471 86.0768 184.69 83.8853C184.69 83.2278 184.69 82.7895 184.471 82.3512C184.251 81.9129 183.813 81.4746 183.374 81.2554C182.496 80.598 181.399 80.3788 180.302 79.7213C178.108 78.8447 176.133 77.7489 174.377 76.2148C172.622 74.6808 171.306 72.7084 170.867 70.2977C170.428 67.6678 171.086 65.2571 172.622 63.5038Z" fill="#EF4380"/>
</svg>
