<svg width="492" height="433" viewBox="0 0 492 433" fill="none" xmlns="http://www.w3.org/2000/svg">
<path d="M231.24 414.9L231.251 414.911L231.262 414.921C235.554 418.608 240.473 420.459 246 420.459C251.527 420.459 256.446 418.608 260.738 414.921L260.749 414.911L260.76 414.9L429.195 251.473C441.831 239.409 452.963 226.138 462.591 211.661C481.848 183.309 491.5 155.524 491.5 128.313C491.5 88.4833 479.758 57.3405 456.22 34.9533C433.285 11.9651 401.32 0.5 360.393 0.5C339.26 0.5 316.953 7.76317 293.48 22.2424C277.351 31.8244 261.524 44.077 246 58.9964C230.476 44.0772 214.65 31.8245 198.52 22.2427C175.047 7.76324 152.74 0.5 131.607 0.5C90.6767 0.5 58.4129 11.9669 34.8786 34.9536C11.9411 57.342 0.5 88.4847 0.5 128.313C0.5 156.131 10.7563 184.821 31.2139 214.376C42.0343 230.043 52.5659 242.415 62.811 251.478L231.24 414.9Z" fill="#EF6898" stroke="black"/>
<path fill-rule="evenodd" clip-rule="evenodd" d="M319.074 9.66859C333.327 3.88953 347.101 1 360.393 1C401.227 1 433.053 12.4371 455.871 35.3113C479.29 57.5836 491 88.5841 491 128.313C491 155.401 481.392 183.091 462.176 211.382C452.569 225.829 441.46 239.072 428.849 251.111L260.412 414.542C256.208 418.153 251.404 419.959 246 419.959C240.596 419.959 235.792 418.153 231.588 414.542L63.1507 251.111C52.9424 242.082 42.4338 229.742 31.625 214.091C23.1637 201.867 16.4557 189.798 11.501 177.885C15.8418 187.621 21.4156 197.467 28.2224 207.424C38.1694 222.008 47.84 233.506 57.2343 241.92L212.241 394.204C216.109 397.569 220.53 399.252 225.503 399.252C230.477 399.252 234.898 397.569 238.766 394.204L393.773 241.92C405.377 230.702 415.601 218.362 424.442 204.9C442.126 178.538 450.968 152.737 450.968 127.496C450.968 90.4767 440.192 61.5904 418.64 40.8371C397.641 19.5229 368.353 8.86577 330.775 8.86577C326.919 8.86577 323.018 9.13338 319.074 9.66859ZM237.895 52.1453C224.889 40.4654 211.678 30.6403 198.261 22.6703C174.842 8.22343 152.624 1 131.607 1C90.7733 1 58.647 12.4371 35.2279 35.3113C27.7727 42.5881 21.5353 50.7965 16.5158 59.9367C20.719 52.9472 25.7264 46.5807 31.5381 40.8371C53.0898 19.5229 82.6543 8.86577 120.232 8.86577C139.573 8.86577 160.019 15.5966 181.571 29.0582C196.492 38.0326 211.136 49.531 225.503 63.5535C229.611 59.5445 233.742 55.7417 237.895 52.1453Z" fill="#EE4380"/>
<path fill-rule="evenodd" clip-rule="evenodd" d="M32.5268 38.0449C27.9496 57.0417 25.661 78.3452 25.661 101.955C25.661 138.96 36.0161 177.171 56.7263 216.589C67.6906 237.505 78.3502 253.996 88.7054 266.063L120.664 306.916L63.1507 251.112C52.9424 242.083 42.4338 229.742 31.625 214.092C11.2083 184.596 1 156.003 1 128.313C1 90.1844 11.5089 60.0949 32.5268 38.0449Z" fill="white"/>
<path d="M94.6937 263.578L94.6937 263.578H244.945L211.782 431.713L127.856 431.713L94.6937 263.578Z" fill="#EF6898" stroke="#363636" stroke-width="2"/>
<path d="M198.343 429.343L227.974 265.946H241.967L210.689 429.343H198.343Z" fill="#EE4380"/>
<path d="M132.068 429.343L100.189 265.946H97.6721L129.551 429.343H132.068Z" fill="white"/>
<path d="M95.56 307.376L242.401 307.376L226.901 377.809H111.059L95.56 307.376Z" fill="white" stroke="#363636" stroke-width="2"/>
<path d="M97.9558 258.209L114.843 234.941H224.796L241.684 258.209H97.9558Z" fill="white" stroke="#363636" stroke-width="2"/>
<mask id="path-9-inside-1" fill="white">
<rect x="90.9606" y="255.841" width="157.718" height="10.107" rx="1"/>
</mask>
<rect x="90.9606" y="255.841" width="157.718" height="10.107" rx="1" fill="white" stroke="#363636" stroke-width="4" mask="url(#path-9-inside-1)"/>
<path d="M246.642 263.578L246.642 263.578H396.893L363.73 431.713L279.804 431.713L246.642 263.578Z" fill="#EF6898" stroke="#363636" stroke-width="2"/>
<path d="M350.29 429.343L379.922 265.946H393.914L362.637 429.343H350.29Z" fill="#EE4380"/>
<path d="M284.016 429.343L252.136 265.946H249.62L281.499 429.343H284.016Z" fill="white"/>
<path d="M247.507 307.376L394.348 307.376L378.849 377.809H263.007L247.507 307.376Z" fill="white" stroke="#363636" stroke-width="2"/>
<path d="M249.903 258.209L266.791 234.941H376.743L393.631 258.209H249.903Z" fill="white" stroke="#363636" stroke-width="2"/>
<mask id="path-15-inside-2" fill="white">
<rect x="242.908" y="255.841" width="157.718" height="10.107" rx="1"/>
</mask>
<rect x="242.908" y="255.841" width="157.718" height="10.107" rx="1" fill="white" stroke="#363636" stroke-width="4" mask="url(#path-15-inside-2)"/>
<path d="M158.534 238.801L331.129 238.801L293.056 431.713H196.607L158.534 238.801Z" fill="#EF6898" stroke="#363636" stroke-width="2"/>
<path d="M277.529 428.852L311.497 241.66H327.538L291.683 428.852H277.529Z" fill="#EE4380"/>
<path d="M201.556 428.852L165.011 241.66H162.126L198.671 428.852H201.556Z" fill="white"/>
<path d="M159.524 288.976L328.217 288.976L310.385 369.959L177.355 369.959L159.524 288.976Z" fill="white" stroke="#363636" stroke-width="2"/>
<path d="M162.165 232.941L181.736 205.993H307.929L327.499 232.941H162.165Z" fill="white" stroke="#363636" stroke-width="2"/>
<mask id="path-21-inside-3" fill="white">
<rect x="154.433" y="230.08" width="180.798" height="11.5789" rx="1"/>
</mask>
<rect x="154.433" y="230.08" width="180.798" height="11.5789" rx="1" fill="white" stroke="#363636" stroke-width="4" mask="url(#path-21-inside-3)"/>
<path d="M217.769 126.633C187.448 154.809 194.692 189.006 207.326 202.1C198.894 173.022 188.616 164.457 227.521 135.521C267.56 105.744 230.642 62.6989 207.326 59.2936C228.89 69.6788 248.09 98.4578 217.769 126.633Z" fill="#E1E1E1" fill-opacity="0.23"/>
<path d="M252.525 139.381C220.237 157.882 207.565 179.36 215.981 193.416C214.49 166.21 221.552 166.444 261.518 149.03C302.647 131.109 281.261 73.7931 261.518 66.0475C278.31 79.5524 284.813 120.879 252.525 139.381Z" fill="#E1E1E1" fill-opacity="0.23"/>
<path d="M186.274 127.493C160.331 156.916 178.224 188.878 190.413 201.181C181.148 172.852 165.943 167.101 199.632 136.485C234.302 104.979 182.507 68.2187 161.164 66.0469C181.305 75.2122 212.217 98.0695 186.274 127.493Z" fill="#E1E1E1" fill-opacity="0.23"/>
</svg>
